<svg width="95" height="16" viewBox="0 0 95 16" fill="none" xmlns="http://www.w3.org/2000/svg">
<path d="M10.5201 0.800006H9.44809L5.44809 7.42401L1.44809 0.800006H0.39209V12H1.24009V2.04801L5.38409 8.92801H5.52809L9.67209 2.04801V12H10.5201V0.800006Z" fill="white"/>
<path d="M18.9143 4.00001L16.1303 11.12L12.8983 4.00001H12.0343L15.7143 12.144L15.5383 12.576C15.0423 13.744 14.2263 14.544 13.1543 14.448V15.2C14.5303 15.312 15.7143 14.272 16.3223 12.736L19.7783 4.00001H18.9143Z" fill="white"/>
<path d="M23.5346 2.59201H20.3346V0.544006H28.8946V2.59201H25.6946V12H23.5346V2.59201Z" fill="white"/>
<path d="M32.7956 12.256C31.9849 12.256 31.2543 12.0693 30.6036 11.696C29.9529 11.3227 29.4409 10.8107 29.0676 10.16C28.7049 9.49867 28.5236 8.75734 28.5236 7.93601C28.5236 7.15734 28.7049 6.43734 29.0676 5.77601C29.4303 5.10401 29.9316 4.57067 30.5716 4.17601C31.2116 3.78134 31.9263 3.58401 32.7156 3.58401C33.5583 3.58401 34.2836 3.76534 34.8916 4.12801C35.4996 4.49067 35.9583 4.98667 36.2676 5.61601C36.5876 6.24534 36.7476 6.94401 36.7476 7.71201C36.7476 7.95734 36.7316 8.19201 36.6996 8.41601H30.5716C30.6783 9.06667 30.9343 9.56267 31.3396 9.90401C31.7556 10.2347 32.2516 10.4 32.8276 10.4C33.3076 10.4 33.7183 10.2987 34.0596 10.096C34.4116 9.88267 34.6889 9.60001 34.8916 9.24801L36.5876 10.08C35.7556 11.5307 34.4916 12.256 32.7956 12.256ZM34.7316 6.92801C34.7103 6.67201 34.6143 6.42134 34.4436 6.17601C34.2836 5.92001 34.0543 5.71201 33.7556 5.55201C33.4676 5.38134 33.1263 5.29601 32.7316 5.29601C32.2303 5.29601 31.7983 5.44534 31.4356 5.74401C31.0836 6.03201 30.8276 6.42667 30.6676 6.92801H34.7316Z" fill="white"/>
<path d="M38.2822 0.544006H40.3782V12H38.2822V0.544006Z" fill="white"/>
<path d="M42.3585 0.544006H44.4545V6.78401H44.5665L47.4945 3.84001H50.0705V3.96801L46.9825 6.99201L50.2145 11.872V12H47.7345L45.5105 8.43201L44.4545 9.47201V12H42.3585V0.544006Z" fill="white"/>
<path d="M54.8856 12.256C54.0429 12.256 53.2909 12.0693 52.6296 11.696C51.9683 11.312 51.4509 10.7947 51.0776 10.144C50.7149 9.48267 50.5336 8.74134 50.5336 7.92001C50.5336 7.10934 50.7149 6.37334 51.0776 5.71201C51.4509 5.05067 51.9683 4.53334 52.6296 4.16001C53.2909 3.77601 54.0429 3.58401 54.8856 3.58401C55.7176 3.58401 56.4643 3.77601 57.1256 4.16001C57.7869 4.53334 58.2989 5.05067 58.6616 5.71201C59.0349 6.37334 59.2216 7.10934 59.2216 7.92001C59.2216 8.74134 59.0349 9.48267 58.6616 10.144C58.2989 10.7947 57.7869 11.312 57.1256 11.696C56.4643 12.0693 55.7176 12.256 54.8856 12.256ZM54.8856 10.32C55.2909 10.32 55.6643 10.224 56.0056 10.032C56.3469 9.84001 56.6189 9.56267 56.8216 9.20001C57.0243 8.83734 57.1256 8.41067 57.1256 7.92001C57.1256 7.44001 57.0243 7.01867 56.8216 6.65601C56.6189 6.29334 56.3469 6.01601 56.0056 5.82401C55.6643 5.63201 55.2909 5.53601 54.8856 5.53601C54.4803 5.53601 54.1069 5.63201 53.7656 5.82401C53.4243 6.01601 53.1469 6.29334 52.9336 6.65601C52.7309 7.01867 52.6296 7.44001 52.6296 7.92001C52.6296 8.40001 52.7309 8.82667 52.9336 9.20001C53.1469 9.56267 53.4243 9.84001 53.7656 10.032C54.1069 10.224 54.4803 10.32 54.8856 10.32Z" fill="white"/>
<path d="M60.5891 3.84001H62.5571V4.86401H62.6851C62.9411 4.46934 63.2824 4.16001 63.7091 3.93601C64.1464 3.70134 64.6318 3.58401 65.1651 3.58401C65.7411 3.58401 66.2424 3.72267 66.6691 4.00001C67.0958 4.26667 67.3998 4.60801 67.5811 5.02401C67.8478 4.59734 68.2104 4.25067 68.6691 3.98401C69.1384 3.71734 69.6878 3.58401 70.3171 3.58401C71.2451 3.58401 71.9491 3.87201 72.4291 4.44801C72.9198 5.01334 73.1651 5.78134 73.1651 6.75201V12H71.0851V7.13601C71.0851 6.62401 70.9624 6.22934 70.7171 5.95201C70.4824 5.67467 70.1518 5.53601 69.7251 5.53601C69.1811 5.53601 68.7438 5.75467 68.4131 6.19201C68.0931 6.61867 67.9331 7.18401 67.9331 7.88801V12H65.8371V7.13601C65.8371 6.62401 65.7091 6.22934 65.4531 5.95201C65.2078 5.67467 64.8558 5.53601 64.3971 5.53601C63.8851 5.53601 63.4691 5.75467 63.1491 6.19201C62.8398 6.61867 62.6851 7.18401 62.6851 7.88801V12H60.5891V3.84001Z" fill="white"/>
<path d="M78.1131 12.256C77.1211 12.256 76.3158 12.0533 75.6971 11.648C75.0891 11.2427 74.6624 10.7147 74.4171 10.064L76.2891 9.24801C76.4598 9.63201 76.6998 9.92534 77.0091 10.128C77.3291 10.32 77.6971 10.416 78.1131 10.416C78.4971 10.416 78.8171 10.3573 79.0731 10.24C79.3291 10.112 79.4571 9.90934 79.4571 9.63201C79.4571 9.36534 79.3398 9.16801 79.1051 9.04001C78.8704 8.90134 78.5184 8.77867 78.0491 8.67201L77.0891 8.46401C76.4278 8.30401 75.8784 8.01601 75.4411 7.60001C75.0038 7.17334 74.7851 6.64534 74.7851 6.01601C74.7851 5.54667 74.9238 5.12534 75.2011 4.75201C75.4891 4.37867 75.8731 4.09067 76.3531 3.88801C76.8438 3.68534 77.3824 3.58401 77.9691 3.58401C79.6544 3.58401 80.7798 4.17601 81.3451 5.36001L79.5531 6.14401C79.2331 5.56801 78.7211 5.28001 78.0171 5.28001C77.6544 5.28001 77.3664 5.34934 77.1531 5.48801C76.9398 5.61601 76.8331 5.78134 76.8331 5.98401C76.8331 6.36801 77.1958 6.65601 77.9211 6.84801L79.1211 7.13601C79.9318 7.33867 80.5398 7.64801 80.9451 8.06401C81.3611 8.48001 81.5691 8.99201 81.5691 9.60001C81.5691 10.1227 81.4144 10.5867 81.1051 10.992C80.8064 11.3867 80.3904 11.696 79.8571 11.92C79.3344 12.144 78.7531 12.256 78.1131 12.256Z" fill="white"/>
<path d="M86.9093 12.256C86.0987 12.256 85.368 12.0693 84.7173 11.696C84.0667 11.3227 83.5547 10.8107 83.1813 10.16C82.8187 9.49867 82.6373 8.75734 82.6373 7.93601C82.6373 7.15734 82.8187 6.43734 83.1813 5.77601C83.544 5.10401 84.0453 4.57067 84.6853 4.17601C85.3253 3.78134 86.04 3.58401 86.8293 3.58401C87.672 3.58401 88.3973 3.76534 89.0053 4.12801C89.6133 4.49067 90.072 4.98667 90.3813 5.61601C90.7013 6.24534 90.8613 6.94401 90.8613 7.71201C90.8613 7.95734 90.8453 8.19201 90.8133 8.41601H84.6853C84.792 9.06667 85.048 9.56267 85.4533 9.90401C85.8693 10.2347 86.3653 10.4 86.9413 10.4C87.4213 10.4 87.832 10.2987 88.1733 10.096C88.5253 9.88267 88.8027 9.60001 89.0053 9.24801L90.7013 10.08C89.8693 11.5307 88.6053 12.256 86.9093 12.256ZM88.8453 6.92801C88.824 6.67201 88.728 6.42134 88.5573 6.17601C88.3973 5.92001 88.168 5.71201 87.8693 5.55201C87.5813 5.38134 87.24 5.29601 86.8453 5.29601C86.344 5.29601 85.912 5.44534 85.5493 5.74401C85.1973 6.03201 84.9413 6.42667 84.7813 6.92801H88.8453Z" fill="white"/>
<path d="M92.396 0.544006H94.492V12H92.396V0.544006Z" fill="white"/>
</svg>
